nColumns=19
nRows=58
DataType=double
version=3
OpenSimVersion=4.1
endheader
time	ground_force_1_vx	ground_force_1_vy	ground_force_1_vz	ground_force_1_px	ground_force_1_py	ground_force_1_pz	ground_force_1_mx	ground_force_1_my	ground_force_1_mz	ground_force_2_vx	ground_force_2_vy	ground_force_2_vz	ground_force_2_px	ground_force_2_py	ground_force_2_pz	ground_force_2_mx	ground_force_2_my	ground_force_2_mz
0	-46.1429	348.718	12.4988	0.143851	0.006	-0.227653	0	-0.272162	0	0	0	0	0.756947	0	-0.315901	0	0	0
0.01	-48.7879	366.535	8.71327	0.146857	0.006	-0.226863	0	-0.471373	0	0	0	0	0.756947	0	-0.315901	0	0	0
0.02	-51.5691	386.643	4.88628	0.150622	0.006	-0.225936	0	-0.631319	0	0	0	0	0.756947	0	-0.315901	0	0	0
0.03	-54.3564	408.635	1.21919	0.154536	0.006	-0.225046	0	-0.73951	0	0	0	0	0.756947	0	-0.315901	0	0	0
0.04	-57.0005	431.983	-2.10021	0.158512	0.006	-0.224216	0	-0.79187	0	0	0	0	0.756947	0	-0.315901	0	0	0
0.05	-59.3424	456.082	-4.93277	0.162477	0.006	-0.22346	0	-0.793665	0	0	0	0	0.756947	0	-0.315901	0	0	0
0.06	-61.2235	480.307	-7.20715	0.166382	0.006	-0.222779	0	-0.757739	0	0	0	0	0.756947	0	-0.315901	0	0	0
0.07	-62.5163	504.072	-8.91611	0.170203	0.006	-0.222165	0	-0.700477	0	0	0	0	0.756947	0	-0.315901	0	0	0
0.08	-63.1461	526.885	-10.0984	0.17394	0.006	-0.221606	0	-0.637681	0	0	0	0	0.756947	0	-0.315901	0	0	0
0.09	-63.1002	548.372	-10.8282	0.177615	0.006	-0.221085	0	-0.582841	0	0	0	0	0.756947	0	-0.315901	0	0	0
0.1	-62.424	568.285	-11.2098	0.181258	0.006	-0.220587	0	-0.546817	0	0	0	0	0.756947	0	-0.315901	0	0	0
0.11	-61.2092	586.491	-11.3647	0.18491	0.006	-0.220096	0	-0.537393	0	0	0	0	0.756947	0	-0.315901	0	0	0
0.12	-59.5714	602.933	-11.4111	0.188604	0.006	-0.219601	0	-0.559033	0	0	0	0	0.756947	0	-0.315901	0	0	0
0.13	-57.6259	617.582	-11.4449	0.19237	0.006	-0.219095	0	-0.613444	0	0	0	0	0.756947	0	-0.315901	0	0	0
0.14	-55.4689	630.401	-11.5278	0.196224	0.006	-0.218578	0	-0.700533	0	0	0	0	0.756947	0	-0.315901	0	0	0
0.15	-53.1722	641.332	-11.6822	0.200176	0.006	-0.21806	0	-0.819212	0	0	0	0	0.756947	0	-0.315901	0	0	0
0.16	-50.7876	650.311	-11.8927	0.204228	0.006	-0.217551	0	-0.967992	0	0	0	0	0.756947	0	-0.315901	0	0	0
0.17	-48.3514	657.289	-12.1195	0.208381	0.006	-0.217068	0	-1.14533	0	0	0	0	0.756947	0	-0.315901	0	0	0
0.18	-45.8938	662.25	-12.3156	0.212632	0.006	-0.216629	0	-1.3494	0	0	0	0	0.756947	0	-0.315901	0	0	0
0.19	-43.4493	665.22	-12.4409	0.216979	0.006	-0.21625	0	-1.57753	0	0	0	0	0.756947	0	-0.315901	0	0	0
0.2	-41.065	666.275	-12.4721	0.221421	0.006	-0.215944	0	-1.82572	0	0	0	0	0.756947	0	-0.315901	0	0	0
0.21	-38.8006	665.543	-12.4047	0.225955	0.006	-0.215719	0	-2.08832	0	0	0	0	0.756947	0	-0.315901	0	0	0
0.22	-36.7199	663.196	-12.2508	0.230571	0.006	-0.215579	0	-2.35806	0	0	0	0	0.756947	0	-0.315901	0	0	0
0.23	-34.88	659.437	-12.0344	0.235259	0.006	-0.215521	0	-2.62659	0	0	0	0	0.756947	0	-0.315901	0	0	0
0.24	-33.3241	654.491	-11.7836	0.240002	0.006	-0.215538	0	-2.8852	0	0	0	0	0.756947	0	-0.315901	0	0	0
0.25	-32.0764	648.591	-11.5226	0.244781	0.006	-0.215618	0	-3.12595	0	0	0	0	0.756947	0	-0.315901	0	0	0
0.26	-31.1382	641.973	-11.2688	0.249573	0.006	-0.21575	0	-3.34263	0	0	0	0	0.756947	0	-0.315901	0	0	0
0.27	-30.4857	634.861	-11.0331	0.254352	0.006	-0.21592	0	-3.53127	0	0	0	0	0.756947	0	-0.315901	0	0	0
0.28	-30.0707	627.469	-10.8217	0.259088	0.006	-0.216113	0	-3.69029	0	0	0	0	0.756947	0	-0.315901	0	0	0
0.29	-29.8237	619.987	-10.639	0.263743	0.006	-0.216319	0	-3.82034	0	0	0	0	0.756947	0	-0.315901	0	0	0
0.3	-29.658	612.587	-10.4905	0.268278	0.006	-0.216526	0	-3.92398	0	0	0	0	0.756947	0	-0.315901	0	0	0
0.31	-29.4754	605.413	-10.3853	0.272646	0.006	-0.216727	0	-4.00519	0	0	0	0	0.756947	0	-0.315901	0	0	0
0.32	-29.1746	598.597	-10.3355	0.276801	0.006	-0.216913	0	-4.06876	0	0	0	0	0.756947	0	-0.315901	0	0	0
0.33	-28.6606	592.264	-10.354	0.280695	0.006	-0.217079	0	-4.11987	0	0	0	0	0.756947	0	-0.315901	0	0	0
0.34	-27.8529	586.543	-10.4512	0.284286	0.006	-0.217223	0	-4.16381	0	0	0	0	0.756947	0	-0.315901	0	0	0
0.35	-26.6899	581.571	-10.6332	0.28754	0.006	-0.21734	0	-4.20562	0	0	0	0	0.756947	0	-0.315901	0	0	0
0.36	-25.1303	577.485	-10.9017	0.290435	0.006	-0.217429	0	-4.24981	0	0	0	0	0.756947	0	-0.315901	0	0	0
0.37	-23.1527	574.421	-11.2566	0.292962	0.006	-0.217487	0	-4.29979	0	0	0	0	0.756947	0	-0.315901	0	0	0
0.38	-20.753	572.498	-11.6985	0.295126	0.006	-0.217511	0	-4.35742	0	0	0	0	0.756947	0	-0.315901	0	0	0
0.39	-17.9408	571.82	-12.2291	0.296946	0.006	-0.217499	0	-4.42288	0	0	0	0	0.756947	0	-0.315901	0	0	0
0.4	-14.7344	572.468	-12.8483	0.298455	0.006	-0.217448	0	-4.49504	0	0	0	0	0.756947	0	-0.315901	0	0	0
0.41	-11.1548	574.499	-13.5519	0.299691	0.006	-0.217355	0	-4.57194	0	0	0	0	0.756947	0	-0.315901	0	0	0
0.42	-7.22253	577.936	-14.3306	0.300697	0.006	-0.217221	0	-4.65094	0	0	0	0	0.756947	0	-0.315901	0	0	0
0.43	-2.95792	582.766	-15.1693	0.301517	0.006	-0.217045	0	-4.72871	0	0	0	0	0.756947	0	-0.315901	0	0	0
0.44	1.61782	588.923	-16.0486	0.302194	0.006	-0.216829	0	-4.80103	0	0	0	0	0.756947	0	-0.315901	0	0	0
0.45	6.48272	596.283	-16.9493	0.302769	0.006	-0.216571	0	-4.86272	0	0	0	0	0.756947	0	-0.315901	0	0	0
0.46	11.6164	604.654	-17.8546	0.303279	0.006	-0.216273	0	-4.9077	0	0	0	0	0.756947	0	-0.315901	0	0	0
0.47	17.0019	613.779	-18.7518	0.303755	0.006	-0.215937	0	-4.92924	0	0	0	0	0.756947	0	-0.315901	0	0	0
0.48	22.6247	623.341	-19.6306	0.304224	0.006	-0.215562	0	-4.92043	0	0	0	0	0.756947	0	-0.315901	0	0	0
0.49	28.4689	632.969	-20.482	0.304705	0.006	-0.21515	0	-4.87469	0	0	0	0	0.756947	0	-0.315901	0	0	0
0.5	34.5131	642.241	-21.2953	0.305213	0.006	-0.214705	0	-4.78643	0	0	0	0	0.756947	0	-0.315901	0	0	0
0.51	40.725	650.69	-22.0562	0.305759	0.006	-0.214231	0	-4.65166	0	0	0	0	0.756947	0	-0.315901	0	0	0
0.52	47.0587	657.813	-22.7457	0.306349	0.006	-0.213731	0	-4.46849	0	0	0	0	0.756947	0	-0.315901	0	0	0
0.53	53.4509	663.092	-23.3401	0.306986	0.006	-0.213213	0	-4.23728	0	0	0	0	0.756947	0	-0.315901	0	0	0
0.54	59.8199	666.027	-23.8121	0.307674	0.006	-0.212682	0	-3.96084	0	0	0	0	0.756947	0	-0.315901	0	0	0
0.55	66.0672	666.163	-24.1305	0.308412	0.006	-0.212145	0	-3.64424	0	0	0	0	0.756947	0	-0.315901	0	0	0
0.56	72.0787	663.118	-24.2616	0.309202	0.006	-0.211607	0	-3.29458	0	-1.41972	20.6135	-5.21196	0.756947	0.006	-0.315901	0	0.416572	0
0.57	77.7292	656.602	-24.1738	0.310047	0.006	-0.211077	0	-2.92016	0	-3.54357	37.9589	-5.81489	0.782731	0.006	-0.327967	0	0.556976	0
